<svg xmlns="http://www.w3.org/2000/svg" xml:space="preserve" id="Layer_1" x="0" y="0" viewBox="0 0 144 144"><style>.st0{fill:#fff}</style><path d="M81 6v7.2c0 11.3-16 22.3-31.6 39.1C44.2 57.6 40 61.9 39 72c-3-12.3 1.8-19.4 9.1-27.4l26.1-26.5c5-5.4 5.2-7.2 6.8-12.1" class="st0"/><path d="M81 20.1v7.2c0 11.3-16 22.3-31.6 39.1-4.1 4.3-9.3 11.3-6.3 19.7-6.3-6.5-3.1-19 5-27.4l26.1-26.5c5-5.3 5.2-7.2 6.8-12.1" class="st0"/><path d="M81 34.3v7.2c0 11.3-10.9 17.2-26.5 34-5.1 5.3-9.6 15.2-2.7 19.1-9-1-9.6-15.2-2.4-23.2l24.8-25c5-5.4 5.2-7.2 6.8-12.1M95.1 80.2c8.1-8.5 11.3-20.9 5-27.4 2.9 8.4-2.2 15.4-6.3 19.7C82.1 83.9 75 90.4 75 98.8v7.2c1.6-4.9 1.8-6.7 6.8-12.1z" class="st0"/><path d="M93.6 67.5c7.3-8 6.7-22.2-2.4-23.2 6.9 3.9 2.5 13.8-2.7 19.1C78.2 74 74.9 78.1 75 84.7v7.2c1.6-4.9 1.8-6.7 6.8-12.1zM75 112.1v8.1c.9-3.4 1.6-5.4 3.5-8.1zM104 67.1c-1 10.1-5.2 14.4-10.4 19.7-9.7 8.7-14.5 14.7-16.8 19.2h6.9l11.2-11.5c7.3-7.9 12.1-15.1 9.1-27.4M123 105l-28-4.9c-2.1 1.6-6.8 5.3-10.3 9.6C75.8 120.2 75 126 75 126c2.7-7.3 12-8.4 19.4-6.9L138 126zM62 112.1v-6h7V105c-.1-6-6.3-7.3-15.8-5.6L21 105 6 126l43.6-6.9c7.5-1.5 16.7-.3 19.4 6.9v-13.9z" class="st0"/></svg>